<svg viewBox="0 0 80 80" xmlns="http://www.w3.org/2000/svg"><path d="m0 0h80v80.49h-80z"/><g fill="#fff"><path d="m22.39 32.6s-1.83-2-.17-2.79a7.66 7.66 0 0 0 4.06-3.56c.85-1.94 3.64-5 5.67-5.49s3.31-.5 4.15-3.81c.46-1.84 1.68-1.41 1.43-4.12s.26-5.61 2.47-7.13a19.69 19.69 0 0 0 1.1 4.23c1.44 3 5.68 5.58 6.76 11a29.52 29.52 0 0 0 1.79 5.22c2.81 7 .93 9.35 2.36 16.82.93 4.85 8.31 12.24-16.67 10.58-1.57-.11-5.67-.75-3.89-5 2.55-6.09 3.78-7.76 2.55-10.11-.64-1.21-3.4-1.32-5.48-.16-2.62 1.45-4.34.08-4.75-1.62-.12-.46.27-1-.74-1.75-.5-.37-.07-2-.62-2.31"/><path d="m16.44 69.69h-.91c0-.22 0-.62 0-1.22v-2.22h-4.46v2.32s0 .9 0 1.12h-.91c0-.22 0-.61 0-1.17s0-1.52 0-2.86c0-.41 0-.9 0-1.48s0-1.21 0-1.89h.91v1.65s0 1.06 0 1.54h4.48c0-.48 0-1 0-1.53s0-1.09 0-1.66h.91v1.93 1.78 2.49s-.02.98-.02 1.2z"/><path d="m22.58 66.54v2.24.93h-.51c-.31 0-.7 0-1.18 0a5.72 5.72 0 0 1 -.89-.01 3.2 3.2 0 0 1 -.79-.24 1.79 1.79 0 0 1 -.71-.56 1.42 1.42 0 0 1 .05-1.76 2.28 2.28 0 0 1 .9-.62 5.11 5.11 0 0 1 .95-.27c.4-.08.86-.13 1.37-.18a1.45 1.45 0 0 0 -.21-.7 1 1 0 0 0 -.56-.37 1.78 1.78 0 0 0 -.54-.14 4.68 4.68 0 0 0 -.7 0h-.42-.47l.09-.73h.32.68a4.57 4.57 0 0 1 1.16.13 2.08 2.08 0 0 1 .85.44 1.74 1.74 0 0 1 .47.71 3.52 3.52 0 0 1 .14 1.13zm-.84 1.34v-.48c0-.19 0-.41 0-.66l-.85.09a4.61 4.61 0 0 0 -1 .25 1.52 1.52 0 0 0 -.55.35.75.75 0 0 0 -.24.57.91.91 0 0 0 .2.61 1.38 1.38 0 0 0 .56.35 2.65 2.65 0 0 0 .6.13 5.09 5.09 0 0 0 .69 0h.61v-.37c-.02-.18-.02-.48-.02-.84z"/><path d="m25.54 63h-1v-1h1zm-.05 6.66h-.87s0-.42 0-1.08 0-1.22 0-1.66v-1.22c0-.45 0-1 0-1.6h.87v1.49s0 .87 0 1.24v2.06s0 .79 0 .8z"/><path d="m30.8 64.75a8.9 8.9 0 0 0 -.93.31c-.42.15-.9.36-1.45.62v.55.92 1.55s0 .93 0 1h-.87c0-.06 0-.26 0-.61s0-1 0-1.8c0-.34 0-.82 0-1.44s0-1.19 0-1.74h.85v.84c.42-.24.83-.44 1.23-.62a7.13 7.13 0 0 1 1-.35z"/><path d="m32.86 69.69h-.86s0-.58 0-1.61 0-1.89 0-2.58c0-.43 0-1 0-1.66s0-1.41 0-2.25h.88v2s0 1.38 0 1.89v2.93s-.02 1.24-.02 1.28z"/><path d="m39.25 66.69h-4a2.59 2.59 0 0 0 .25 1.08 2.14 2.14 0 0 0 .75.81 2.39 2.39 0 0 0 .73.3 4 4 0 0 0 1.02.12h.58.32l-.1.73h-.29-.58a4.71 4.71 0 0 1 -1.54-.23 3 3 0 0 1 -1.08-.64 2.82 2.82 0 0 1 -.61-.86 2.63 2.63 0 0 1 -.25-1.16 3.17 3.17 0 0 1 .19-1.14 3 3 0 0 1 .56-1 2.27 2.27 0 0 1 .81-.58 2.66 2.66 0 0 1 1-.2 2.61 2.61 0 0 1 .92.15 2 2 0 0 1 .69.47 2.46 2.46 0 0 1 .49.87 3.82 3.82 0 0 1 .14 1.28zm-.86-.62a1.85 1.85 0 0 0 -.46-1.07 1.35 1.35 0 0 0 -1-.39 1.44 1.44 0 0 0 -1 .39 2.14 2.14 0 0 0 -.58 1.07z"/><path d="m43.75 68.08a1.34 1.34 0 0 1 -.19.72 1.61 1.61 0 0 1 -.52.52 2.73 2.73 0 0 1 -.8.32 4.65 4.65 0 0 1 -1 .11h-.56-.33v-.72h.38.67.5a1.59 1.59 0 0 0 .5-.12 1 1 0 0 0 .41-.3.66.66 0 0 0 .13-.42.6.6 0 0 0 -.11-.37 1.47 1.47 0 0 0 -.32-.27 3.71 3.71 0 0 0 -.61-.32 5.41 5.41 0 0 1 -.64-.32 1.75 1.75 0 0 1 -.57-.54 1.34 1.34 0 0 1 -.2-.72 1.24 1.24 0 0 1 .23-.73 1.62 1.62 0 0 1 .6-.53 2 2 0 0 1 .72-.23 5.09 5.09 0 0 1 .77-.06h.8l.06.73h-.34-.66a3.89 3.89 0 0 0 -.49 0 1.78 1.78 0 0 0 -.39.13.83.83 0 0 0 -.34.29.66.66 0 0 0 -.1.34.59.59 0 0 0 .14.38 1.84 1.84 0 0 0 .34.27c.15.09.36.19.62.31a6.41 6.41 0 0 1 .57.3 1.83 1.83 0 0 1 .59.54 1.19 1.19 0 0 1 .14.69z"/><path d="m48.36 68.08a1.34 1.34 0 0 1 -.2.72 1.52 1.52 0 0 1 -.52.52 2.63 2.63 0 0 1 -.8.32 4.62 4.62 0 0 1 -1 .11h-.56-.33v-.72h.39q.33 0 .66 0h.5a1.59 1.59 0 0 0 .5-.12 1 1 0 0 0 .41-.3.66.66 0 0 0 .14-.42.55.55 0 0 0 -.12-.37 1.47 1.47 0 0 0 -.32-.27 3.71 3.71 0 0 0 -.61-.32 6.33 6.33 0 0 1 -.64-.32 1.75 1.75 0 0 1 -.57-.54 1.34 1.34 0 0 1 -.19-.72 1.23 1.23 0 0 1 .22-.73 1.62 1.62 0 0 1 .6-.53 2 2 0 0 1 .72-.23 5.19 5.19 0 0 1 .77-.06h.8l.06.73h-.34-.66a3.58 3.58 0 0 0 -.48 0 1.48 1.48 0 0 0 -.39.13.77.77 0 0 0 -.34.29.68.68 0 0 0 -.11.34.55.55 0 0 0 .05.41 1.56 1.56 0 0 0 .34.27 5.87 5.87 0 0 0 .62.31 6.41 6.41 0 0 1 .57.3 2.07 2.07 0 0 1 .59.54 1.26 1.26 0 0 1 .24.66z"/><path d="m54.5 69.69h-.87c0-.1 0-.44 0-1s0-.93 0-1.07v-.85c0-.37 0-.65 0-.82a1.5 1.5 0 0 0 -.23-.95 1 1 0 0 0 -.79-.28 2.4 2.4 0 0 0 -.83.2 6.39 6.39 0 0 0 -1 .51v.66 1.09s0 .94 0 1.54 0 .93 0 1h-.87s0-.25 0-.67 0-1.06 0-1.9v-1.39c0-.52 0-1.07 0-1.66h.86v.64a7.27 7.27 0 0 1 1.29-.62 2.94 2.94 0 0 1 .86-.17 1.51 1.51 0 0 1 1.13.44 1.68 1.68 0 0 1 .43 1.22v1.2.82 1.26s.02.78.02.8z"/><path d="m60.8 66.69h-4a2.32 2.32 0 0 0 .25 1.08 2.11 2.11 0 0 0 .74.81 2.49 2.49 0 0 0 .73.3 4 4 0 0 0 1 .11h.57.33l-.1.73h-.3-.58a4.75 4.75 0 0 1 -1.54-.23 3 3 0 0 1 -1.08-.64 2.82 2.82 0 0 1 -.61-.86 2.77 2.77 0 0 1 -.21-1.16 3.09 3.09 0 0 1 .75-2.09 2.27 2.27 0 0 1 .81-.58 2.71 2.71 0 0 1 1-.2 2.59 2.59 0 0 1 .91.15 2 2 0 0 1 .69.47 2.48 2.48 0 0 1 .5.87 4.13 4.13 0 0 1 .14 1.24zm-.8-.62a1.86 1.86 0 0 0 -.52-1.07 1.33 1.33 0 0 0 -1-.39 1.45 1.45 0 0 0 -1 .39 2.14 2.14 0 0 0 -.58 1.07z"/><path d="m65.31 68.08a1.34 1.34 0 0 1 -.2.72 1.52 1.52 0 0 1 -.52.52 2.63 2.63 0 0 1 -.8.32 4.62 4.62 0 0 1 -1 .11h-.56-.33v-.72h.39q.33 0 .66 0h.5a1.59 1.59 0 0 0 .5-.12 1 1 0 0 0 .41-.3.66.66 0 0 0 .13-.42.54.54 0 0 0 -.11-.37 1.47 1.47 0 0 0 -.32-.27 3.71 3.71 0 0 0 -.61-.32 6.33 6.33 0 0 1 -.64-.32 1.75 1.75 0 0 1 -.57-.54 1.34 1.34 0 0 1 -.19-.72 1.23 1.23 0 0 1 .22-.73 1.62 1.62 0 0 1 .6-.53 2 2 0 0 1 .72-.23 5.19 5.19 0 0 1 .77-.06h.8l.06.73h-.34-.66a3.58 3.58 0 0 0 -.48 0 1.48 1.48 0 0 0 -.39.13.77.77 0 0 0 -.34.29.68.68 0 0 0 -.11.34.55.55 0 0 0 .1.41 1.76 1.76 0 0 0 .33.27c.16.09.36.19.62.31a5.62 5.62 0 0 1 .58.3 2.07 2.07 0 0 1 .59.54 1.26 1.26 0 0 1 .19.66z"/><path d="m69.91 68.08a1.34 1.34 0 0 1 -.2.72 1.44 1.44 0 0 1 -.52.52 2.53 2.53 0 0 1 -.8.32 4.62 4.62 0 0 1 -1 .11h-.56-.33v-.72h.38.67l.45-.03a1.66 1.66 0 0 0 .51-.12 1 1 0 0 0 .41-.3.72.72 0 0 0 .13-.42.55.55 0 0 0 -.12-.37 1.26 1.26 0 0 0 -.32-.27 4 4 0 0 0 -.6-.32 6.6 6.6 0 0 1 -.65-.32 1.81 1.81 0 0 1 -.56-.54 1.34 1.34 0 0 1 -.2-.72 1.23 1.23 0 0 1 .22-.73 1.62 1.62 0 0 1 .6-.53 2 2 0 0 1 .73-.23 5.06 5.06 0 0 1 .76-.06h.81l.06.73h-.34-.67a3.58 3.58 0 0 0 -.48 0 1.78 1.78 0 0 0 -.39.13.83.83 0 0 0 -.34.29.66.66 0 0 0 -.1.34.54.54 0 0 0 .14.38 1.84 1.84 0 0 0 .34.27c.15.09.36.19.62.31a6.41 6.41 0 0 1 .57.3 1.94 1.94 0 0 1 .59.54 1.26 1.26 0 0 1 .19.72z"/></g></svg>